<svg width="46" height="60" viewBox="0 0 46 60" fill="none" xmlns="http://www.w3.org/2000/svg">
<path fill-rule="evenodd" clip-rule="evenodd" d="M30.3236 59.854C30.2699 59.8782 30.2151 59.8996 30.1592 59.9181L30.1191 59.9288C29.969 59.9756 29.8127 59.9995 29.6555 59.9996C29.409 60.0052 29.1647 59.9531 28.942 59.8476C28.7193 59.7421 28.5243 59.586 28.3726 59.3919C28.2989 59.3018 28.2348 59.2042 28.1816 59.1007L17.5423 40.682V46.8381C17.5423 47.359 17.2951 47.8465 16.8835 48.155L16.7205 48.2619L2.46806 56.4868C2.21782 56.6309 1.93407 56.7067 1.64528 56.7065C1.35649 56.7063 1.07283 56.6302 0.822763 56.4858C0.572701 56.3415 0.36504 56.1338 0.220624 55.8839C0.0762088 55.6339 0.000121882 55.3503 0 55.0617V9.86846C0 9.19128 0.360787 8.69041 0.848519 8.42729L15.0756 0.219688C15.4531 0.00250654 15.9012 -0.0563247 16.322 0.0560765C16.7427 0.168478 17.1018 0.442951 17.3205 0.819397L28.0038 19.2421V9.86846C28.0038 9.34756 28.2524 8.86004 28.6653 8.55151L28.827 8.44465L43.0794 0.219688C43.3297 0.0755924 43.6134 -0.000172084 43.9022 2.93487e-07C44.191 0.000172671 44.4747 0.0762758 44.7247 0.220671C44.9748 0.365065 45.1825 0.572671 45.3269 0.822646C45.4713 1.07262 45.5474 1.35617 45.5475 1.64483V50.1278C45.5475 50.7155 45.2335 51.2577 44.7244 51.5516L30.5561 59.7298C30.4852 59.7753 30.4111 59.8155 30.3343 59.85V59.8487L30.3236 59.854ZM42.2563 4.49378L31.295 10.8194V55.5024L42.2563 49.1768V4.49378ZM15.2961 3.88873L3.8925 10.4695L28.0038 52.2127V25.8042L15.2974 3.88873H15.2961ZM3.28985 16.0085V52.2127L14.2511 45.8871V34.9841L12.3082 31.6209L3.28985 16.0098V16.0085Z" fill="#040062"/>
</svg>
